<?xml version="1.0" encoding="UTF-8" standalone="no"?>
<svg
   viewBox="0 0 350 400"
   width="350"
   height="400"
   version="1.1"
   xmlns="http://www.w3.org/2000/svg"
   xmlns:svg="http://www.w3.org/2000/svg">
    <path
       style="fill:#ffcc00;stroke:#2b2200"
       d="m 224.60643,14.238564 c -4.78475,0.02408 -9.56638,0.554231 -14.27149,1.570312 -11.05651,2.38769 -21.68462,7.454569 -29.79492,15.199219 -5.89394,5.62821 -10.45803,12.670253 -13.3457,20.314453 -2.09153,5.53667 -3.30404,11.388794 -3.41406,17.271484 -0.1454,7.77429 1.63325,15.60198 0.46484,23.26172 -0.34279,2.24721 -0.93876,4.48098 -2.48242,6.359367 -1.02456,1.24672 -2.46594,2.336901 -2.79297,3.566411 -0.59516,2.23757 2.50198,4.93511 5.43164,6.20312 5.23247,2.26473 9.93007,-0.0302 14.58594,-2.01562 7.59106,-3.23706 15.06831,-5.65082 22.50195,-8.374997 7.37187,-2.701551 14.70063,-5.708631 22.3457,-8.218751 7.29719,-2.39591 14.88238,-4.3386 21.88477,-6.12891 14.81775,-3.78846 27.02764,-6.89424 46.32812,-12.90429 5.86885,-1.82752 12.39421,-3.92323 12.01563,-8.33594 -0.18464,-2.152234 -2.01238,-4.856929 -4.17188,-5.787109 -3.25182,-1.40068 -7.25801,1.219518 -10.71484,0.736328 -2.54586,-0.35587 -4.79462,-2.39523 -6.41797,-4.625 -1.98906,-2.7321 -3.04044,-5.748979 -4.45508,-8.605469 -5.7379,-11.58615 -17.45016,-20.507887 -30.10547,-25.279297 -7.63703,-2.879375 -15.61722,-4.247167 -23.59179,-4.207031 z m -10.77539,11.714844 c 2.94,-0.02366 6.17993,0.335531 9.12109,0.878906 8.44311,1.55985 14.42135,4.646799 20.6582,9.787109 5.96796,4.91869 12.17181,11.717141 13.89649,17.019531 0.40486,1.244721 0.56334,2.406667 -0.18164,3.035157 -0.92986,0.78446 -3.26665,0.736548 -5.21875,-0.388672 -2.38258,-1.37337 -4.1923,-4.352474 -5.83399,-6.677735 -3.10486,-4.397679 -5.60924,-6.455183 -8.1914,-8.527343 -4.51849,-3.62604 -9.27644,-7.2947 -17.67383,-9.50586 -1.6672,-0.43899 -3.47809,-0.819838 -6.33789,-0.955078 -3.13505,-0.14826 -7.53017,-4.47e-4 -8.83984,-0.654297 -0.77477,-0.3868 -0.46948,-1.055028 0.0234,-1.611328 1.51386,-1.7087 4.79813,-2.369974 8.57813,-2.40039 z" />
    <path
       style="fill:#2b2200;stroke:#2b2200"
       d="m 287.1826,71.842082 c -16.57131,5.05387 -27.92969,7.94336 -27.92969,7.94336 -20.53573,5.25039 -28.12078,7.19393 -35.41797,9.58984 -7.64507,2.51012 -14.97383,5.5172 -22.3457,8.218751 -5.8108,2.129466 -11.64739,4.069897 -17.54492,6.361327 2.34991,47.86106 -38.66698,93.2172 -72.1582,128.02343 -6.42317,6.67538 -12.570464,12.96185 -19.603531,21.28125 -5.497688,6.5032 -11.536318,14.24936 -16.574219,21.71093 -7.652807,11.3344 -12.994849,22.01437 -16.507812,32.94727 -3.344139,10.4074 -5.030993,21.04281 -4.169922,32.85352 0.561025,7.69528 2.203333,15.88901 -0.960938,20.79101 -1.037013,1.6066 -2.589218,2.85952 -4.251953,3.97852 -7.731072,5.2027 -17.829162,7.50865 -33.904297,6.22265 -3.070556,-0.2456 -6.3589683,-0.62244 -7.6503913,0.56446 -0.821483,0.755 -0.833951,2.1427 -0.515625,3.4414 1.297376,5.2931 8.1030713,9.10806 14.4082043,11.34766 7.168476,2.5462 13.688939,3.05585 19.96875,3.40625 27.493076,1.5341 50.372893,0.0148 81.597664,-0.0332 23.21541,-0.0357 51.04353,0.74272 70.03711,0.91602 5.05172,0.046 9.47806,0.0486 10.50586,-2.82812 0.41847,-1.1712 0.27441,-2.81968 -0.25976,-4.60938 -1.06581,-3.5709 -3.68197,-7.70295 -7.20899,-10.68555 -4.97529,-4.2073 -11.76499,-6.12655 -17.42969,-6.78515 -7.0214,-0.8164 -12.31341,0.30387 -23.16992,0.73437 -2.64983,0.1051 -5.63286,0.16764 -5.63086,-0.57226 0.001,-0.5781 1.82487,-1.64596 3.50977,-2.68946 10.59394,-6.5614 15.75886,-12.11948 19.52344,-18.77148 3.97998,-7.0327 6.39415,-15.28899 5.47461,-23.99219 -2.02217,-19.1391 -20.17084,-40.4417 -54.52344,-36.4414 -2.05453,0.2393 -4.16575,0.56917 -4.46289,0.35937 -0.15618,-0.1103 0.18842,-0.3714 0.55273,-0.625 9.19698,-6.4031 30.48806,-9.19256 47.09375,1.65234 1.4854,0.97 2.93207,2.04873 4.28125,3.17383 11.69567,9.7523 15.97318,22.94775 15.98828,35.90235 0.0113,9.6602 -2.34755,19.18655 -11.69531,27.96875 -3.30015,3.1005 -7.47067,6.10713 -7.68945,7.17773 -0.18132,0.8873 2.35144,0.4447 4.99414,-0.3418 12.07849,-3.5943 26.44185,-14.35898 34.90234,-26.80078 2.79411,-4.1089 4.94567,-8.40145 5.81446,-12.66015 0.404,-1.9804 0.53022,-3.95308 0.60742,-5.89258 0.43719,-10.9795 -0.7168,-20.8741 -4.36524,-35.5586 -1.18922,-4.7864 -2.64423,-10.08229 -1.53515,-9.15625 0.66201,0.55276 2.23727,3.32129 3.5625,5.89649 4.82046,9.3672 6.33377,16.16672 8.01562,23.38672 5.1681,22.1861 11.93705,48.35116 20.4707,71.19336 2.89783,7.7567 5.99867,15.12872 9.16797,17.91992 0.16761,0.1476 0.33557,0.28236 0.52344,0.41016 4.61423,3.1399 21.33685,2.08363 37.66211,2.24023 3.4529,0.0331 6.8883,0.12066 8.68555,-0.77734 1.3771,-0.6881 1.79196,-1.95495 1.85156,-3.27735 0.32302,-7.1691 -9.81169,-15.97573 -18.62109,-18.17383 -3.09155,-0.7715 -6.0196,-0.7297 -7.79688,-1.5 -2.51062,-1.0881 -2.72491,-3.79846 -3.11133,-7.85547 -1.03268,-10.8425 -3.29964,-31.30268 -3.24804,-48.02148 0.0513,-16.6432 2.39985,-29.57795 6.86718,-40.78516 4.47922,-11.237 11.08977,-20.73868 12.17188,-33.44336 0.89868,-10.55113 -2.0156,-23.31125 -4.8125,-34.67382 -2.3936,-9.7241 -4.70195,-18.42495 -4.96094,-27.66797 -0.15111,-5.39328 0.39609,-10.97027 2.84961,-15.67774 4.43074,-8.50103 15.08042,-14.16395 24.85742,-14.50195 3.39442,-0.11734 6.68343,0.40733 9.99024,0.11914 8.11099,-0.70688 16.32808,-6.30078 20.57617,-13.31055 2.47197,-4.07902 3.59999,-8.63773 5.04101,-14.14648 1.89263,-7.23513 4.32542,-16.11072 2.64844,-21.289048 -1.16688,-3.60322 -4.32427,-5.41631 -8.14648,-6.43555 -3.57555,-0.95346 -7.7327,-1.2113 -11.83985,-1.3457 -5.8667,-0.19198 -11.63006,-0.13022 -17.26758,-1.73633 -3.27649,-0.93347 -6.51011,-2.43019 -8.95117,-4.72266 -1.98126,-1.86067 -3.44047,-4.24653 -5.08984,-6.44922 -0.9052,-1.20887 -1.868,-2.36222 -2.84961,-3.49804 z m -3.04688,16.64258 c 1.32571,-0.0662 2.606,0.1974 3.45704,1.07617 0.64448,0.66549 1.04187,1.68459 0.95507,2.5957 -0.12001,1.2596 -1.16757,2.31395 -2.52734,2.86719 -2.49362,1.01455 -6.03369,0.34121 -6.76367,-1.84375 -0.2866,-0.85784 -0.14173,-1.94782 0.33984,-2.73047 0.64392,-1.0465 1.8882,-1.54225 3.21289,-1.79883 0.4381,-0.0849 0.88427,-0.14396 1.32617,-0.16601 z m -46.23242,9.162111 c 0.0276,-0.002 0.0575,5.2e-4 0.0879,0.006 0.72975,0.12807 2.2371,2.329626 3.36524,4.398437 1.05469,1.93412 1.7768,3.75189 2.51758,5.87304 1.61327,4.61951 3.31383,10.67603 3.85156,17.61719 0.4853,6.26444 0.0238,13.25027 -2.77735,18.07031 -3.23283,5.56294 -9.58171,8.24107 -16.11132,7.80859 -2.75228,-0.1823 -5.53767,-0.91785 -8.17578,-1.91015 -5.24007,-1.971 -9.90189,-4.95755 -14.54688,-8.97461 -5.19308,-4.49105 -10.36484,-10.27095 -12.00195,-15.625 -0.39475,-1.29048 -0.58219,-2.55507 0.004,-2.63477 0.54063,-0.0736 1.74071,0.86064 3.27539,2.19531 2.84522,2.47442 6.83848,6.32126 10.4668,9.32422 9.07967,7.51472 15.86888,9.74979 21.05078,9.32617 7.96109,-0.65083 12.12921,-7.57688 12.25782,-18.0996 0.0793,-6.49085 -1.37892,-14.35002 -2.74219,-21.19726 -0.46341,-2.32753 -0.91543,-4.538551 -0.86133,-5.527341 0.0239,-0.437236 0.14644,-0.636256 0.33984,-0.650386 z" />
</svg>
